<svg xmlns="http://www.w3.org/2000/svg" xmlns:xlink="http://www.w3.org/1999/xlink" contentStyleType="text/css" data-diagram-type="CLASS" height="1967px" preserveAspectRatio="none" style="width:729px;height:1967px;background:#FFFFFF;" version="1.1" viewBox="0 0 729 1967" width="729px" zoomAndPan="magnify"><defs/><g><!--class C_0010254948448905657575--><g class="entity" data-entity="C_0010254948448905657575" data-source-line="1" data-uid="ent0002" id="entity_C_0010254948448905657575"><rect fill="#F1F1F1" height="118.4375" rx="2.5" ry="2.5" style="stroke:#181818;stroke-width:0.5;" width="162.2129" x="197.5" y="1833"/><ellipse cx="255.2944" cy="1849" fill="#ADD1B2" rx="11" ry="11" style="stroke:#181818;stroke-width:1;"/><path d="M258.0601,1844.875 Q258.2163,1844.6563 258.4038,1844.5469 Q258.5913,1844.4375 258.8101,1844.4375 Q259.1851,1844.4375 259.4194,1844.7031 Q259.6538,1844.9531 259.6538,1845.5625 L259.6538,1847.0156 Q259.6538,1847.625 259.4194,1847.8906 Q259.1851,1848.1563 258.8101,1848.1563 Q258.4663,1848.1563 258.2632,1847.9531 Q258.0601,1847.7656 257.9507,1847.25 Q257.9038,1846.8906 257.7163,1846.7031 Q257.3882,1846.3281 256.7788,1846.1094 Q256.1694,1845.8906 255.5444,1845.8906 Q254.7788,1845.8906 254.1382,1846.2188 Q253.5132,1846.5469 253.0132,1847.2969 Q252.5288,1848.0469 252.5288,1849.0781 L252.5288,1850.1719 Q252.5288,1851.4063 253.4194,1852.2344 Q254.3101,1853.0469 255.9038,1853.0469 Q256.8413,1853.0469 257.4976,1852.7969 Q257.8882,1852.6406 258.3101,1852.2031 Q258.5757,1851.9375 258.7163,1851.8594 Q258.8726,1851.7813 259.0757,1851.7813 Q259.4038,1851.7813 259.6538,1852.0469 Q259.9194,1852.2969 259.9194,1852.6406 Q259.9194,1852.9844 259.5757,1853.3906 Q259.0757,1853.9688 258.2788,1854.2969 Q257.2007,1854.75 255.9038,1854.75 Q254.3882,1854.75 253.1851,1854.125 Q252.2007,1853.625 251.5132,1852.5625 Q250.8257,1851.4844 250.8257,1850.2031 L250.8257,1849.0469 Q250.8257,1847.7188 251.4351,1846.5781 Q252.0601,1845.4219 253.1538,1844.8125 Q254.2476,1844.1875 255.4819,1844.1875 Q256.2163,1844.1875 256.8569,1844.3594 Q257.5132,1844.5156 258.0601,1844.875 Z " fill="#000000"/><text fill="#000000" font-family="sans-serif" font-size="14" lengthAdjust="spacing" textLength="38.124" x="275.7944" y="1854.7285">vertex</text><line style="stroke:#181818;stroke-width:0.5;" x1="198.5" x2="358.7129" y1="1865" y2="1865"/><line style="stroke:#181818;stroke-width:0.5;" x1="198.5" x2="358.7129" y1="1873" y2="1873"/><ellipse cx="208.5" cy="1887.3047" fill="none" rx="3" ry="3" style="stroke:#038048;stroke-width:1;"/><text fill="#000000" font-family="sans-serif" font-size="14" lengthAdjust="spacing" textLength="136.2129" x="217.5" y="1891.5332">incident_halfedge : int</text><ellipse cx="208.5" cy="1904.9141" fill="none" rx="3" ry="3" style="stroke:#038048;stroke-width:1;"/><text fill="#000000" font-family="sans-serif" font-size="14" lengthAdjust="spacing" textLength="96.5029" x="217.5" y="1909.1426">is_border : bool</text><ellipse cx="208.5" cy="1922.5234" fill="none" rx="3" ry="3" style="stroke:#038048;stroke-width:1;"/><text fill="#000000" font-family="sans-serif" font-size="14" lengthAdjust="spacing" textLength="60.71" x="217.5" y="1926.752">x : double</text><ellipse cx="208.5" cy="1940.1328" fill="none" rx="3" ry="3" style="stroke:#038048;stroke-width:1;"/><text fill="#000000" font-family="sans-serif" font-size="14" lengthAdjust="spacing" textLength="60.71" x="217.5" y="1944.3613">y : double</text></g><!--class C_0012587826410550795881--><g class="entity" data-entity="C_0012587826410550795881" data-source-line="9" data-uid="ent0003" id="entity_C_0012587826410550795881"><rect fill="#F1F1F1" height="136.0469" rx="2.5" ry="2.5" style="stroke:#181818;stroke-width:0.5;" width="110.8203" x="395" y="1824"/><ellipse cx="420.5983" cy="1840" fill="#ADD1B2" rx="11" ry="11" style="stroke:#181818;stroke-width:1;"/><path d="M423.3639,1835.875 Q423.5202,1835.6563 423.7077,1835.5469 Q423.8952,1835.4375 424.1139,1835.4375 Q424.4889,1835.4375 424.7233,1835.7031 Q424.9577,1835.9531 424.9577,1836.5625 L424.9577,1838.0156 Q424.9577,1838.625 424.7233,1838.8906 Q424.4889,1839.1563 424.1139,1839.1563 Q423.7702,1839.1563 423.567,1838.9531 Q423.3639,1838.7656 423.2545,1838.25 Q423.2077,1837.8906 423.0202,1837.7031 Q422.692,1837.3281 422.0827,1837.1094 Q421.4733,1836.8906 420.8483,1836.8906 Q420.0827,1836.8906 419.442,1837.2188 Q418.817,1837.5469 418.317,1838.2969 Q417.8327,1839.0469 417.8327,1840.0781 L417.8327,1841.1719 Q417.8327,1842.4063 418.7233,1843.2344 Q419.6139,1844.0469 421.2077,1844.0469 Q422.1452,1844.0469 422.8014,1843.7969 Q423.192,1843.6406 423.6139,1843.2031 Q423.8795,1842.9375 424.0202,1842.8594 Q424.1764,1842.7813 424.3795,1842.7813 Q424.7077,1842.7813 424.9577,1843.0469 Q425.2233,1843.2969 425.2233,1843.6406 Q425.2233,1843.9844 424.8795,1844.3906 Q424.3795,1844.9688 423.5827,1845.2969 Q422.5045,1845.75 421.2077,1845.75 Q419.692,1845.75 418.4889,1845.125 Q417.5045,1844.625 416.817,1843.5625 Q416.1295,1842.4844 416.1295,1841.2031 L416.1295,1840.0469 Q416.1295,1838.7188 416.7389,1837.5781 Q417.3639,1836.4219 418.4577,1835.8125 Q419.5514,1835.1875 420.7858,1835.1875 Q421.5202,1835.1875 422.1608,1835.3594 Q422.817,1835.5156 423.3639,1835.875 Z " fill="#000000"/><text fill="#000000" font-family="sans-serif" font-size="14" lengthAdjust="spacing" textLength="55.2686" x="436.9535" y="1845.7285">halfEdge</text><line style="stroke:#181818;stroke-width:0.5;" x1="396" x2="504.8203" y1="1856" y2="1856"/><line style="stroke:#181818;stroke-width:0.5;" x1="396" x2="504.8203" y1="1864" y2="1864"/><ellipse cx="406" cy="1878.3047" fill="none" rx="3" ry="3" style="stroke:#038048;stroke-width:1;"/><text fill="#000000" font-family="sans-serif" font-size="14" lengthAdjust="spacing" textLength="84.8203" x="415" y="1882.5332">is_border : int</text><ellipse cx="406" cy="1895.9141" fill="none" rx="3" ry="3" style="stroke:#038048;stroke-width:1;"/><text fill="#000000" font-family="sans-serif" font-size="14" lengthAdjust="spacing" textLength="52.917" x="415" y="1900.1426">next : int</text><ellipse cx="406" cy="1913.5234" fill="none" rx="3" ry="3" style="stroke:#038048;stroke-width:1;"/><text fill="#000000" font-family="sans-serif" font-size="14" lengthAdjust="spacing" textLength="60.6963" x="415" y="1917.752">origin : int</text><ellipse cx="406" cy="1931.1328" fill="none" rx="3" ry="3" style="stroke:#038048;stroke-width:1;"/><text fill="#000000" font-family="sans-serif" font-size="14" lengthAdjust="spacing" textLength="53.6895" x="415" y="1935.3613">prev : int</text><ellipse cx="406" cy="1948.7422" fill="none" rx="3" ry="3" style="stroke:#038048;stroke-width:1;"/><text fill="#000000" font-family="sans-serif" font-size="14" lengthAdjust="spacing" textLength="51.3516" x="415" y="1952.9707">twin : int</text></g><!--class C_0001247905348796509944--><g class="entity" data-entity="C_0001247905348796509944" data-source-line="18" data-uid="ent0004" id="entity_C_0001247905348796509944"><rect fill="#F1F1F1" height="901.25" rx="2.5" ry="2.5" style="stroke:#181818;stroke-width:0.5;" width="715.4932" x="7" y="845"/><ellipse cx="320.0278" cy="861" fill="#ADD1B2" rx="11" ry="11" style="stroke:#181818;stroke-width:1;"/><path d="M322.7935,856.875 Q322.9497,856.6563 323.1372,856.5469 Q323.3247,856.4375 323.5435,856.4375 Q323.9185,856.4375 324.1528,856.7031 Q324.3872,856.9531 324.3872,857.5625 L324.3872,859.0156 Q324.3872,859.625 324.1528,859.8906 Q323.9185,860.1563 323.5435,860.1563 Q323.1997,860.1563 322.9966,859.9531 Q322.7935,859.7656 322.6841,859.25 Q322.6372,858.8906 322.4497,858.7031 Q322.1216,858.3281 321.5122,858.1094 Q320.9028,857.8906 320.2778,857.8906 Q319.5122,857.8906 318.8716,858.2188 Q318.2466,858.5469 317.7466,859.2969 Q317.2622,860.0469 317.2622,861.0781 L317.2622,862.1719 Q317.2622,863.4063 318.1528,864.2344 Q319.0435,865.0469 320.6372,865.0469 Q321.5747,865.0469 322.231,864.7969 Q322.6216,864.6406 323.0435,864.2031 Q323.3091,863.9375 323.4497,863.8594 Q323.606,863.7813 323.8091,863.7813 Q324.1372,863.7813 324.3872,864.0469 Q324.6528,864.2969 324.6528,864.6406 Q324.6528,864.9844 324.3091,865.3906 Q323.8091,865.9688 323.0122,866.2969 Q321.9341,866.75 320.6372,866.75 Q319.1216,866.75 317.9185,866.125 Q316.9341,865.625 316.2466,864.5625 Q315.5591,863.4844 315.5591,862.2031 L315.5591,861.0469 Q315.5591,859.7188 316.1685,858.5781 Q316.7935,857.4219 317.8872,856.8125 Q318.981,856.1875 320.2153,856.1875 Q320.9497,856.1875 321.5903,856.3594 Q322.2466,856.5156 322.7935,856.875 Z " fill="#000000"/><text fill="#000000" font-family="sans-serif" font-size="14" lengthAdjust="spacing" textLength="80.9375" x="340.5278" y="866.7285">Triangulation</text><line style="stroke:#181818;stroke-width:0.5;" x1="8" x2="721.4932" y1="877" y2="877"/><ellipse cx="18" cy="891.3047" fill="#84BE84" rx="3" ry="3" style="stroke:#038048;stroke-width:1;"/><text fill="#000000" font-family="sans-serif" font-size="14" lengthAdjust="spacing" textLength="127.6133" x="27" y="895.5332">Triangulation() : void</text><ellipse cx="18" cy="908.9141" fill="#84BE84" rx="3" ry="3" style="stroke:#038048;stroke-width:1;"/><text fill="#000000" font-family="sans-serif" font-size="14" lengthAdjust="spacing" textLength="498.0391" x="27" y="913.1426">Triangulation(std::string node_file, std::string ele_file, std::string neigh_file) : void</text><ellipse cx="18" cy="926.5234" fill="#84BE84" rx="3" ry="3" style="stroke:#038048;stroke-width:1;"/><text fill="#000000" font-family="sans-serif" font-size="14" lengthAdjust="spacing" textLength="245.8682" x="27" y="930.752">Triangulation(std::string OFF_file) : void</text><ellipse cx="18" cy="944.1328" fill="#84BE84" rx="3" ry="3" style="stroke:#038048;stroke-width:1;"/><text fill="#000000" font-family="sans-serif" font-size="14" lengthAdjust="spacing" textLength="266.9092" x="27" y="948.3613">Triangulation(const Triangulation &amp; t) : void</text><ellipse cx="18" cy="961.7422" fill="#84BE84" rx="3" ry="3" style="stroke:#038048;stroke-width:1;"/><text fill="#000000" font-family="sans-serif" font-size="14" lengthAdjust="spacing" textLength="171.1855" x="27" y="965.9707">Triangulation(int size) : void</text><ellipse cx="18" cy="979.3516" fill="#84BE84" rx="3" ry="3" style="stroke:#038048;stroke-width:1;"/><text fill="#000000" font-family="sans-serif" font-size="14" lengthAdjust="spacing" textLength="135.7891" x="27" y="983.5801">~Triangulation() : void</text><line style="stroke:#181818;stroke-width:1;stroke-dasharray:1,2;" x1="8" x2="721.4932" y1="990.6563" y2="990.6563"/><ellipse cx="18" cy="1004.9609" fill="#84BE84" rx="3" ry="3" style="stroke:#038048;stroke-width:1;"/><text fill="#000000" font-family="sans-serif" font-size="14" lengthAdjust="spacing" textLength="199.9785" x="27" y="1009.1895">CCW_edge_to_vertex(int e) : int</text><ellipse cx="18" cy="1022.5703" fill="#84BE84" rx="3" ry="3" style="stroke:#038048;stroke-width:1;"/><text fill="#000000" font-family="sans-serif" font-size="14" lengthAdjust="spacing" textLength="189.8682" x="27" y="1026.7988">CW_edge_to_vertex(int e) : int</text><rect fill="#F24D5C" height="6" style="stroke:#C82930;stroke-width:1;" width="6" x="15" y="1037.1797"/><text fill="#000000" font-family="sans-serif" font-size="14" lengthAdjust="spacing" textLength="227.999" x="27" y="1044.4082">construct_exterior_halfEdges() : void</text><rect fill="#F24D5C" height="6" style="stroke:#C82930;stroke-width:1;" width="6" x="15" y="1054.7891"/><text fill="#000000" font-family="sans-serif" font-size="14" lengthAdjust="spacing" textLength="447.4395" x="27" y="1062.0176">construct_interior_halfEdges_from_faces(std::vector&lt;int&gt; &amp; faces) : void</text><rect fill="#F24D5C" height="6" style="stroke:#C82930;stroke-width:1;" width="6" x="15" y="1072.3984"/><text fill="#000000" font-family="sans-serif" font-size="14" lengthAdjust="spacing" textLength="689.4932" x="27" y="1079.627">construct_interior_halfEdges_from_faces_and_neighs(std::vector&lt;int&gt; &amp; faces, std::vector&lt;int&gt; &amp; neighs) : void</text><ellipse cx="18" cy="1093.0078" fill="#84BE84" rx="3" ry="3" style="stroke:#038048;stroke-width:1;"/><text fill="#000000" font-family="sans-serif" font-size="14" lengthAdjust="spacing" textLength="105.0479" x="27" y="1097.2363">degree(int v) : int</text><ellipse cx="18" cy="1110.6172" fill="#84BE84" rx="3" ry="3" style="stroke:#038048;stroke-width:1;"/><text fill="#000000" font-family="sans-serif" font-size="14" lengthAdjust="spacing" textLength="141.6406" x="27" y="1114.8457">distance(int e) : double</text><ellipse cx="18" cy="1128.2266" fill="#84BE84" rx="3" ry="3" style="stroke:#038048;stroke-width:1;"/><text fill="#000000" font-family="sans-serif" font-size="14" lengthAdjust="spacing" textLength="157.9717" x="27" y="1132.4551">edge_of_vertex(int v) : int</text><ellipse cx="18" cy="1145.8359" fill="#84BE84" rx="3" ry="3" style="stroke:#038048;stroke-width:1;"/><text fill="#000000" font-family="sans-serif" font-size="14" lengthAdjust="spacing" textLength="69.2412" x="27" y="1150.0645">faces() : int</text><ellipse cx="18" cy="1163.4453" fill="#84BE84" rx="3" ry="3" style="stroke:#038048;stroke-width:1;"/><text fill="#000000" font-family="sans-serif" font-size="14" lengthAdjust="spacing" textLength="153.3164" x="27" y="1167.6738">get_PointX(int i) : double</text><ellipse cx="18" cy="1181.0547" fill="#84BE84" rx="3" ry="3" style="stroke:#038048;stroke-width:1;"/><text fill="#000000" font-family="sans-serif" font-size="14" lengthAdjust="spacing" textLength="153.3164" x="27" y="1185.2832">get_PointY(int i) : double</text><ellipse cx="18" cy="1198.6641" fill="#84BE84" rx="3" ry="3" style="stroke:#038048;stroke-width:1;"/><text fill="#000000" font-family="sans-serif" font-size="14" lengthAdjust="spacing" textLength="201.5371" x="27" y="1202.8926">get_Triangles() : std::vector&lt;int&gt;</text><ellipse cx="18" cy="1216.2734" fill="#84BE84" rx="3" ry="3" style="stroke:#038048;stroke-width:1;"/><text fill="#000000" font-family="sans-serif" font-size="14" lengthAdjust="spacing" textLength="245.1641" x="27" y="1220.502">get_size_vertex_half_edge() : long long</text><ellipse cx="18" cy="1233.8828" fill="#84BE84" rx="3" ry="3" style="stroke:#038048;stroke-width:1;"/><text fill="#000000" font-family="sans-serif" font-size="14" lengthAdjust="spacing" textLength="217.8887" x="27" y="1238.1113">get_size_vertex_struct() : long long</text><ellipse cx="18" cy="1251.4922" fill="#84BE84" rx="3" ry="3" style="stroke:#038048;stroke-width:1;"/><text fill="#000000" font-family="sans-serif" font-size="14" lengthAdjust="spacing" textLength="274.7432" x="27" y="1255.7207">get_triangulation_generation_time() : double</text><ellipse cx="18" cy="1269.1016" fill="#84BE84" rx="3" ry="3" style="stroke:#038048;stroke-width:1;"/><text fill="#000000" font-family="sans-serif" font-size="14" lengthAdjust="spacing" textLength="98.0479" x="27" y="1273.3301">halfEdges() : int</text><ellipse cx="18" cy="1286.7109" fill="#84BE84" rx="3" ry="3" style="stroke:#038048;stroke-width:1;"/><text fill="#000000" font-family="sans-serif" font-size="14" lengthAdjust="spacing" textLength="183.6611" x="27" y="1290.9395">incident_face(int e) : _triangle</text><ellipse cx="18" cy="1304.3203" fill="#84BE84" rx="3" ry="3" style="stroke:#038048;stroke-width:1;"/><text fill="#000000" font-family="sans-serif" font-size="14" lengthAdjust="spacing" textLength="168.1025" x="27" y="1308.5488">incident_halfedge(int f) : int</text><ellipse cx="18" cy="1321.9297" fill="#84BE84" rx="3" ry="3" style="stroke:#038048;stroke-width:1;"/><text fill="#000000" font-family="sans-serif" font-size="14" lengthAdjust="spacing" textLength="166.5371" x="27" y="1326.1582">is_border_face(int e) : bool</text><ellipse cx="18" cy="1339.5391" fill="#84BE84" rx="3" ry="3" style="stroke:#038048;stroke-width:1;"/><text fill="#000000" font-family="sans-serif" font-size="14" lengthAdjust="spacing" textLength="177.4131" x="27" y="1343.7676">is_border_vertex(int v) : bool</text><ellipse cx="18" cy="1357.1484" fill="#84BE84" rx="3" ry="3" style="stroke:#038048;stroke-width:1;"/><text fill="#000000" font-family="sans-serif" font-size="14" lengthAdjust="spacing" textLength="238.1025" x="27" y="1361.377">is_counterclockwise(_triangle tr) : bool</text><ellipse cx="18" cy="1374.7578" fill="#84BE84" rx="3" ry="3" style="stroke:#038048;stroke-width:1;"/><text fill="#000000" font-family="sans-serif" font-size="14" lengthAdjust="spacing" textLength="168.8613" x="27" y="1378.9863">is_interior_face(int e) : bool</text><ellipse cx="18" cy="1392.3672" fill="#84BE84" rx="3" ry="3" style="stroke:#038048;stroke-width:1;"/><text fill="#000000" font-family="sans-serif" font-size="14" lengthAdjust="spacing" textLength="88.7031" x="27" y="1396.5957">next(int e) : int</text><ellipse cx="18" cy="1409.9766" fill="#84BE84" rx="3" ry="3" style="stroke:#038048;stroke-width:1;"/><text fill="#000000" font-family="sans-serif" font-size="14" lengthAdjust="spacing" textLength="96.4824" x="27" y="1414.2051">origin(int e) : int</text><ellipse cx="18" cy="1427.5859" fill="#84BE84" rx="3" ry="3" style="stroke:#038048;stroke-width:1;"/><text fill="#000000" font-family="sans-serif" font-size="14" lengthAdjust="spacing" textLength="89.4756" x="27" y="1431.8145">prev(int e) : int</text><rect fill="#F24D5C" height="6" style="stroke:#C82930;stroke-width:1;" width="6" x="15" y="1442.1953"/><text fill="#000000" font-family="sans-serif" font-size="14" lengthAdjust="spacing" textLength="298.0059" x="27" y="1449.4238">read_OFFfile(std::string name) : std::vector&lt;int&gt;</text><rect fill="#F24D5C" height="6" style="stroke:#C82930;stroke-width:1;" width="6" x="15" y="1459.8047"/><text fill="#000000" font-family="sans-serif" font-size="14" lengthAdjust="spacing" textLength="347.8398" x="27" y="1467.0332">read_neigh_from_file(std::string name) : std::vector&lt;int&gt;</text><rect fill="#F24D5C" height="6" style="stroke:#C82930;stroke-width:1;" width="6" x="15" y="1477.4141"/><text fill="#000000" font-family="sans-serif" font-size="14" lengthAdjust="spacing" textLength="281.6953" x="27" y="1484.6426">read_nodes_from_file(std::string name) : void</text><rect fill="#F24D5C" height="6" style="stroke:#C82930;stroke-width:1;" width="6" x="15" y="1495.0234"/><text fill="#000000" font-family="sans-serif" font-size="14" lengthAdjust="spacing" textLength="366.502" x="27" y="1502.252">read_triangles_from_file(std::string name) : std::vector&lt;int&gt;</text><ellipse cx="18" cy="1515.6328" fill="#84BE84" rx="3" ry="3" style="stroke:#038048;stroke-width:1;"/><text fill="#000000" font-family="sans-serif" font-size="14" lengthAdjust="spacing" textLength="171.1924" x="27" y="1519.8613">set_next(int e, int nxt) : void</text><ellipse cx="18" cy="1533.2422" fill="#84BE84" rx="3" ry="3" style="stroke:#038048;stroke-width:1;"/><text fill="#000000" font-family="sans-serif" font-size="14" lengthAdjust="spacing" textLength="172.7373" x="27" y="1537.4707">set_prev(int e, int prv) : void</text><ellipse cx="18" cy="1550.8516" fill="#84BE84" rx="3" ry="3" style="stroke:#038048;stroke-width:1;"/><text fill="#000000" font-family="sans-serif" font-size="14" lengthAdjust="spacing" textLength="98.041" x="27" y="1555.0801">target(int e) : int</text><ellipse cx="18" cy="1568.4609" fill="#84BE84" rx="3" ry="3" style="stroke:#038048;stroke-width:1;"/><text fill="#000000" font-family="sans-serif" font-size="14" lengthAdjust="spacing" textLength="87.1377" x="27" y="1572.6895">twin(int e) : int</text><ellipse cx="18" cy="1586.0703" fill="#84BE84" rx="3" ry="3" style="stroke:#038048;stroke-width:1;"/><text fill="#000000" font-family="sans-serif" font-size="14" lengthAdjust="spacing" textLength="84.0137" x="27" y="1590.2988">vertices() : int</text><line style="stroke:#181818;stroke-width:0.5;" x1="8" x2="721.4932" y1="1597.375" y2="1597.375"/><rect fill="none" height="6" style="stroke:#C82930;stroke-width:1;" width="6" x="15" y="1608.6797"/><text fill="#000000" font-family="sans-serif" font-size="14" lengthAdjust="spacing" textLength="212.4609" x="27" y="1615.9082">HalfEdges : std::vector&lt;halfEdge&gt;</text><rect fill="none" height="6" style="stroke:#C82930;stroke-width:1;" width="6" x="15" y="1626.2891"/><text fill="#000000" font-family="sans-serif" font-size="14" lengthAdjust="spacing" textLength="181.2959" x="27" y="1633.5176">Vertices : std::vector&lt;vertex&gt;</text><rect fill="none" height="6" style="stroke:#C82930;stroke-width:1;" width="6" x="15" y="1643.8984"/><text fill="#000000" font-family="sans-serif" font-size="14" lengthAdjust="spacing" textLength="128.4268" x="27" y="1651.127">n_border_edges : int</text><rect fill="none" height="6" style="stroke:#C82930;stroke-width:1;" width="6" x="15" y="1661.5078"/><text fill="#000000" font-family="sans-serif" font-size="14" lengthAdjust="spacing" textLength="75.4893" x="27" y="1668.7363">n_faces : int</text><rect fill="none" height="6" style="stroke:#C82930;stroke-width:1;" width="6" x="15" y="1679.1172"/><text fill="#000000" font-family="sans-serif" font-size="14" lengthAdjust="spacing" textLength="102.7441" x="27" y="1686.3457">n_halfedges : int</text><rect fill="none" height="6" style="stroke:#C82930;stroke-width:1;" width="6" x="15" y="1696.7266"/><text fill="#000000" font-family="sans-serif" font-size="14" lengthAdjust="spacing" textLength="90.2617" x="27" y="1703.9551">n_vertices : int</text><rect fill="none" height="6" style="stroke:#C82930;stroke-width:1;" width="6" x="15" y="1714.3359"/><text fill="#000000" font-family="sans-serif" font-size="14" lengthAdjust="spacing" textLength="215.6123" x="27" y="1721.5645">t_triangulation_generation : double</text><rect fill="none" height="6" style="stroke:#C82930;stroke-width:1;" width="6" x="15" y="1731.9453"/><text fill="#000000" font-family="sans-serif" font-size="14" lengthAdjust="spacing" textLength="178.1992" x="27" y="1739.1738">triangle_list : std::vector&lt;int&gt;</text></g><!--class C_0002932479644109573042--><g class="entity" data-entity="C_0002932479644109573042" data-source-line="71" data-uid="ent0005" id="entity_C_0002932479644109573042"><rect fill="#F1F1F1" height="760.375" rx="2.5" ry="2.5" style="stroke:#181818;stroke-width:0.5;" width="484.3428" x="122.5" y="7"/><ellipse cx="339.8008" cy="23" fill="#ADD1B2" rx="11" ry="11" style="stroke:#181818;stroke-width:1;"/><path d="M342.5664,18.875 Q342.7227,18.6563 342.9102,18.5469 Q343.0977,18.4375 343.3164,18.4375 Q343.6914,18.4375 343.9258,18.7031 Q344.1602,18.9531 344.1602,19.5625 L344.1602,21.0156 Q344.1602,21.625 343.9258,21.8906 Q343.6914,22.1563 343.3164,22.1563 Q342.9727,22.1563 342.7695,21.9531 Q342.5664,21.7656 342.457,21.25 Q342.4102,20.8906 342.2227,20.7031 Q341.8945,20.3281 341.2852,20.1094 Q340.6758,19.8906 340.0508,19.8906 Q339.2852,19.8906 338.6445,20.2188 Q338.0195,20.5469 337.5195,21.2969 Q337.0352,22.0469 337.0352,23.0781 L337.0352,24.1719 Q337.0352,25.4063 337.9258,26.2344 Q338.8164,27.0469 340.4102,27.0469 Q341.3477,27.0469 342.0039,26.7969 Q342.3945,26.6406 342.8164,26.2031 Q343.082,25.9375 343.2227,25.8594 Q343.3789,25.7813 343.582,25.7813 Q343.9102,25.7813 344.1602,26.0469 Q344.4258,26.2969 344.4258,26.6406 Q344.4258,26.9844 344.082,27.3906 Q343.582,27.9688 342.7852,28.2969 Q341.707,28.75 340.4102,28.75 Q338.8945,28.75 337.6914,28.125 Q336.707,27.625 336.0195,26.5625 Q335.332,25.4844 335.332,24.2031 L335.332,23.0469 Q335.332,21.7188 335.9414,20.5781 Q336.5664,19.4219 337.6602,18.8125 Q338.7539,18.1875 339.9883,18.1875 Q340.7227,18.1875 341.3633,18.3594 Q342.0195,18.5156 342.5664,18.875 Z " fill="#000000"/><text fill="#000000" font-family="sans-serif" font-size="14" lengthAdjust="spacing" textLength="41.2412" x="360.3008" y="28.7285">Polylla</text><line style="stroke:#181818;stroke-width:0.5;" x1="123.5" x2="605.8428" y1="39" y2="39"/><ellipse cx="133.5" cy="53.3047" fill="#84BE84" rx="3" ry="3" style="stroke:#038048;stroke-width:1;"/><text fill="#000000" font-family="sans-serif" font-size="14" lengthAdjust="spacing" textLength="87.917" x="142.5" y="57.5332">Polylla() : void</text><ellipse cx="133.5" cy="70.9141" fill="#84BE84" rx="3" ry="3" style="stroke:#038048;stroke-width:1;"/><text fill="#000000" font-family="sans-serif" font-size="14" lengthAdjust="spacing" textLength="254.4609" x="142.5" y="75.1426">Polylla(Triangulation * input_mesh) : void</text><ellipse cx="133.5" cy="88.5234" fill="#84BE84" rx="3" ry="3" style="stroke:#038048;stroke-width:1;"/><text fill="#000000" font-family="sans-serif" font-size="14" lengthAdjust="spacing" textLength="193.7441" x="142.5" y="92.752">Polylla(std::string off_file) : void</text><ellipse cx="133.5" cy="106.1328" fill="#84BE84" rx="3" ry="3" style="stroke:#038048;stroke-width:1;"/><text fill="#000000" font-family="sans-serif" font-size="14" lengthAdjust="spacing" textLength="458.3428" x="142.5" y="110.3613">Polylla(std::string node_file, std::string ele_file, std::string neigh_file) : void</text><ellipse cx="133.5" cy="123.7422" fill="#84BE84" rx="3" ry="3" style="stroke:#038048;stroke-width:1;"/><text fill="#000000" font-family="sans-serif" font-size="14" lengthAdjust="spacing" textLength="131.4893" x="142.5" y="127.9707">Polylla(int size) : void</text><ellipse cx="133.5" cy="141.3516" fill="#84BE84" rx="3" ry="3" style="stroke:#038048;stroke-width:1;"/><text fill="#000000" font-family="sans-serif" font-size="14" lengthAdjust="spacing" textLength="96.0928" x="142.5" y="145.5801">~Polylla() : void</text><line style="stroke:#181818;stroke-width:1;stroke-dasharray:1,2;" x1="123.5" x2="605.8428" y1="152.6563" y2="152.6563"/><rect fill="#F24D5C" height="6" style="stroke:#C82930;stroke-width:1;" width="6" x="130.5" y="163.9609"/><text fill="#000000" font-family="sans-serif" font-size="14" lengthAdjust="spacing" textLength="298.874" x="142.5" y="171.1895">Equality(double a, double b, double epsilon) : int</text><rect fill="#F24D5C" height="6" style="stroke:#C82930;stroke-width:1;" width="6" x="130.5" y="181.5703"/><text fill="#000000" font-family="sans-serif" font-size="14" lengthAdjust="spacing" textLength="359.584" x="142.5" y="188.7988">GreaterEqualthan(double a, double b, double epsilon) : int</text><rect fill="#F24D5C" height="6" style="stroke:#C82930;stroke-width:1;" width="6" x="130.5" y="199.1797"/><text fill="#000000" font-family="sans-serif" font-size="14" lengthAdjust="spacing" textLength="275.4883" x="142.5" y="206.4082">barrieredge_tip_reparation(const int e) : void</text><rect fill="#F24D5C" height="6" style="stroke:#C82930;stroke-width:1;" width="6" x="130.5" y="216.7891"/><text fill="#000000" font-family="sans-serif" font-size="14" lengthAdjust="spacing" textLength="242.0195" x="142.5" y="224.0176">calculate_middle_edge(const int v) : int</text><ellipse cx="133.5" cy="237.3984" fill="#84BE84" rx="3" ry="3" style="stroke:#038048;stroke-width:1;"/><text fill="#000000" font-family="sans-serif" font-size="14" lengthAdjust="spacing" textLength="152.5029" x="142.5" y="241.627">construct_Polylla() : void</text><rect fill="#F24D5C" height="6" style="stroke:#C82930;stroke-width:1;" width="6" x="130.5" y="252.0078"/><text fill="#000000" font-family="sans-serif" font-size="14" lengthAdjust="spacing" textLength="411.6875" x="142.5" y="259.2363">generate_repaired_polygon(const int e, bit_vector &amp; seed_list) : int</text><rect fill="#F24D5C" height="6" style="stroke:#C82930;stroke-width:1;" width="6" x="130.5" y="269.6172"/><text fill="#000000" font-family="sans-serif" font-size="14" lengthAdjust="spacing" textLength="224.1162" x="142.5" y="276.8457">has_BarrierEdgeTip(int e_init) : bool</text><rect fill="#F24D5C" height="6" style="stroke:#C82930;stroke-width:1;" width="6" x="130.5" y="287.2266"/><text fill="#000000" font-family="sans-serif" font-size="14" lengthAdjust="spacing" textLength="211.6748" x="142.5" y="294.4551">is_frontier_edge(const int e) : bool</text><rect fill="#F24D5C" height="6" style="stroke:#C82930;stroke-width:1;" width="6" x="130.5" y="304.8359"/><text fill="#000000" font-family="sans-serif" font-size="14" lengthAdjust="spacing" textLength="161.1094" x="142.5" y="312.0645">is_seed_edge(int e) : bool</text><rect fill="#F24D5C" height="6" style="stroke:#C82930;stroke-width:1;" width="6" x="130.5" y="322.4453"/><text fill="#000000" font-family="sans-serif" font-size="14" lengthAdjust="spacing" textLength="202.3369" x="142.5" y="329.6738">label_max_edge(const int e) : int</text><ellipse cx="133.5" cy="343.0547" fill="#84BE84" rx="3" ry="3" style="stroke:#038048;stroke-width:1;"/><text fill="#000000" font-family="sans-serif" font-size="14" lengthAdjust="spacing" textLength="225.6543" x="142.5" y="347.2832">print_ALE(std::string filename) : void</text><ellipse cx="133.5" cy="360.6641" fill="#84BE84" rx="3" ry="3" style="stroke:#038048;stroke-width:1;"/><text fill="#000000" font-family="sans-serif" font-size="14" lengthAdjust="spacing" textLength="227.1855" x="142.5" y="364.8926">print_OFF(std::string filename) : void</text><ellipse cx="133.5" cy="378.2734" fill="#84BE84" rx="3" ry="3" style="stroke:#038048;stroke-width:1;"/><text fill="#000000" font-family="sans-serif" font-size="14" lengthAdjust="spacing" textLength="228.7578" x="142.5" y="382.502">print_stats(std::string filename) : void</text><rect fill="#F24D5C" height="6" style="stroke:#C82930;stroke-width:1;" width="6" x="130.5" y="392.8828"/><text fill="#000000" font-family="sans-serif" font-size="14" lengthAdjust="spacing" textLength="231.9023" x="142.5" y="400.1113">search_frontier_edge(const int e) : int</text><rect fill="#F24D5C" height="6" style="stroke:#C82930;stroke-width:1;" width="6" x="130.5" y="410.4922"/><text fill="#000000" font-family="sans-serif" font-size="14" lengthAdjust="spacing" textLength="194.5303" x="142.5" y="417.7207">travel_triangles(const int e) : int</text><line style="stroke:#181818;stroke-width:0.5;" x1="123.5" x2="605.8428" y1="424.7969" y2="424.7969"/><rect fill="none" height="6" style="stroke:#C82930;stroke-width:1;" width="6" x="130.5" y="436.1016"/><text fill="#000000" font-family="sans-serif" font-size="14" lengthAdjust="spacing" textLength="161.8682" x="142.5" y="443.3301">frontier_edges : bit_vector</text><rect fill="none" height="6" style="stroke:#C82930;stroke-width:1;" width="6" x="130.5" y="453.7109"/><text fill="#000000" font-family="sans-serif" font-size="14" lengthAdjust="spacing" textLength="101.9443" x="142.5" y="460.9395">m_polygons : int</text><rect fill="none" height="6" style="stroke:#C82930;stroke-width:1;" width="6" x="130.5" y="471.3203"/><text fill="#000000" font-family="sans-serif" font-size="14" lengthAdjust="spacing" textLength="144.7441" x="142.5" y="478.5488">max_edges : bit_vector</text><rect fill="none" height="6" style="stroke:#C82930;stroke-width:1;" width="6" x="130.5" y="488.9297"/><text fill="#000000" font-family="sans-serif" font-size="14" lengthAdjust="spacing" textLength="174.3232" x="142.5" y="496.1582">mesh_input : Triangulation *</text><rect fill="none" height="6" style="stroke:#C82930;stroke-width:1;" width="6" x="130.5" y="506.5391"/><text fill="#000000" font-family="sans-serif" font-size="14" lengthAdjust="spacing" textLength="182.8887" x="142.5" y="513.7676">mesh_output : Triangulation *</text><rect fill="none" height="6" style="stroke:#C82930;stroke-width:1;" width="6" x="130.5" y="524.1484"/><text fill="#000000" font-family="sans-serif" font-size="14" lengthAdjust="spacing" textLength="150.9854" x="142.5" y="531.377">n_barrier_edge_tips : int</text><rect fill="none" height="6" style="stroke:#C82930;stroke-width:1;" width="6" x="130.5" y="541.7578"/><text fill="#000000" font-family="sans-serif" font-size="14" lengthAdjust="spacing" textLength="131.5303" x="142.5" y="548.9863">n_frontier_edges : int</text><rect fill="none" height="6" style="stroke:#C82930;stroke-width:1;" width="6" x="130.5" y="559.3672"/><text fill="#000000" font-family="sans-serif" font-size="14" lengthAdjust="spacing" textLength="224.1641" x="142.5" y="566.5957">n_polygons_added_after_repair : int</text><rect fill="none" height="6" style="stroke:#C82930;stroke-width:1;" width="6" x="130.5" y="576.9766"/><text fill="#000000" font-family="sans-serif" font-size="14" lengthAdjust="spacing" textLength="161.1094" x="142.5" y="584.2051">n_polygons_to_repair : int</text><rect fill="none" height="6" style="stroke:#C82930;stroke-width:1;" width="6" x="130.5" y="594.5859"/><text fill="#000000" font-family="sans-serif" font-size="14" lengthAdjust="spacing" textLength="191.4541" x="142.5" y="601.8145">output_seeds : std::vector&lt;int&gt;</text><rect fill="none" height="6" style="stroke:#C82930;stroke-width:1;" width="6" x="130.5" y="612.1953"/><text fill="#000000" font-family="sans-serif" font-size="14" lengthAdjust="spacing" textLength="168.8682" x="142.5" y="619.4238">seed_bet_mark : bit_vector</text><rect fill="none" height="6" style="stroke:#C82930;stroke-width:1;" width="6" x="130.5" y="629.8047"/><text fill="#000000" font-family="sans-serif" font-size="14" lengthAdjust="spacing" textLength="183.6748" x="142.5" y="637.0332">seed_edges : std::vector&lt;int&gt;</text><rect fill="none" height="6" style="stroke:#C82930;stroke-width:1;" width="6" x="130.5" y="647.4141"/><text fill="#000000" font-family="sans-serif" font-size="14" lengthAdjust="spacing" textLength="192.2539" x="142.5" y="654.6426">t_label_frontier_edges : double</text><rect fill="none" height="6" style="stroke:#C82930;stroke-width:1;" width="6" x="130.5" y="665.0234"/><text fill="#000000" font-family="sans-serif" font-size="14" lengthAdjust="spacing" textLength="175.1299" x="142.5" y="672.252">t_label_max_edges : double</text><rect fill="none" height="6" style="stroke:#C82930;stroke-width:1;" width="6" x="130.5" y="682.6328"/><text fill="#000000" font-family="sans-serif" font-size="14" lengthAdjust="spacing" textLength="179.04" x="142.5" y="689.8613">t_label_seed_edges : double</text><rect fill="none" height="6" style="stroke:#C82930;stroke-width:1;" width="6" x="130.5" y="700.2422"/><text fill="#000000" font-family="sans-serif" font-size="14" lengthAdjust="spacing" textLength="101.1787" x="142.5" y="707.4707">t_repair : double</text><rect fill="none" height="6" style="stroke:#C82930;stroke-width:1;" width="6" x="130.5" y="717.8516"/><text fill="#000000" font-family="sans-serif" font-size="14" lengthAdjust="spacing" textLength="119.0684" x="142.5" y="725.0801">t_traversal : double</text><rect fill="none" height="6" style="stroke:#C82930;stroke-width:1;" width="6" x="130.5" y="735.4609"/><text fill="#000000" font-family="sans-serif" font-size="14" lengthAdjust="spacing" textLength="193.792" x="142.5" y="742.6895">t_traversal_and_repair : double</text><rect fill="none" height="6" style="stroke:#C82930;stroke-width:1;" width="6" x="130.5" y="753.0703"/><text fill="#000000" font-family="sans-serif" font-size="14" lengthAdjust="spacing" textLength="178.1992" x="142.5" y="760.2988">triangle_list : std::vector&lt;int&gt;</text></g><!--reverse link C_0001247905348796509944 to C_0010254948448905657575--><g class="link" data-entity-1="C_0001247905348796509944" data-entity-2="C_0010254948448905657575" data-source-line="116" data-uid="lnk6" id="link_C_0001247905348796509944_C_0010254948448905657575"><path codeLine="116" d="M297.7124,1758.2064 C292.9124,1791.3964 290.33,1809.23 286.9,1832.96" fill="none" id="C_0001247905348796509944-backto-C_0010254948448905657575" style="stroke:#181818;stroke-width:1;"/><polygon fill="none" points="299.43,1746.33,294.6124,1751.6957,297.7124,1758.2064,302.53,1752.8408,299.43,1746.33" style="stroke:#181818;stroke-width:1;"/><rect fill="none" height="6" style="stroke:#C82930;stroke-width:1;" width="6" x="298.5" y="1782.6758"/><text fill="#000000" font-family="sans-serif" font-size="13" lengthAdjust="spacing" textLength="46.96" x="308.5" y="1790.4951">Vertices</text></g><!--reverse link C_0001247905348796509944 to C_0012587826410550795881--><g class="link" data-entity-1="C_0001247905348796509944" data-entity-2="C_0012587826410550795881" data-source-line="117" data-uid="lnk7" id="link_C_0001247905348796509944_C_0012587826410550795881"><path codeLine="117" d="M431.287,1758.2065 C435.497,1787.3265 437.61,1801.89 440.8,1823.97" fill="none" id="C_0001247905348796509944-backto-C_0012587826410550795881" style="stroke:#181818;stroke-width:1;"/><polygon fill="none" points="429.57,1746.33,426.4697,1752.8406,431.287,1758.2065,434.3874,1751.6959,429.57,1746.33" style="stroke:#181818;stroke-width:1;"/><rect fill="none" height="6" style="stroke:#C82930;stroke-width:1;" width="6" x="439.5" y="1782.6758"/><text fill="#000000" font-family="sans-serif" font-size="13" lengthAdjust="spacing" textLength="59.979" x="449.5" y="1790.4951">HalfEdges</text></g><!--link C_0002932479644109573042 to C_0001247905348796509944--><g class="link" data-entity-1="C_0002932479644109573042" data-entity-2="C_0001247905348796509944" data-source-line="118" data-uid="lnk8" id="link_C_0002932479644109573042_C_0001247905348796509944"><path codeLine="118" d="M304.05,767.13 C303.11,777.18 302.25,787.15 301.5,797 C300.3,812.73 299.6914,822.731 299.3914,838.881" fill="none" id="C_0002932479644109573042-to-C_0001247905348796509944" style="stroke:#181818;stroke-width:1;"/><polygon fill="#181818" points="299.28,844.88,303.4465,835.9558,299.3729,839.8809,295.4478,835.8073,299.28,844.88" style="stroke:#181818;stroke-width:1;"/><rect fill="none" height="6" style="stroke:#C82930;stroke-width:1;" width="6" x="304.5" y="803.6758"/><text fill="#000000" font-family="sans-serif" font-size="13" lengthAdjust="spacing" textLength="67.209" x="314.5" y="811.4951">mesh_input</text></g><!--link C_0002932479644109573042 to C_0001247905348796509944--><g class="link" data-entity-1="C_0002932479644109573042" data-entity-2="C_0001247905348796509944" data-source-line="119" data-uid="lnk9" id="link_C_0002932479644109573042_C_0001247905348796509944"><path codeLine="119" d="M385.6,767.06 C385.93,777.14 386.23,787.14 386.5,797 C386.92,812.66 387.129,822.6001 387.239,838.7001" fill="none" id="C_0002932479644109573042-to-C_0001247905348796509944-1" style="stroke:#181818;stroke-width:1;"/><polygon fill="#181818" points="387.28,844.7,391.2184,835.6729,387.2458,839.7001,383.2186,835.7275,387.28,844.7" style="stroke:#181818;stroke-width:1;"/><rect fill="none" height="6" style="stroke:#C82930;stroke-width:1;" width="6" x="390.5" y="803.6758"/><text fill="#000000" font-family="sans-serif" font-size="13" lengthAdjust="spacing" textLength="75.1626" x="400.5" y="811.4951">mesh_output</text></g><!--SRC=[fLTBR-Cs4BxxLn0vT9CwScHPigMWMA0Dijj3YkvXiMrF12rHChkow9AquxHeVtk7f4GzBEU1HG17cXU7CzzyOwSbaH9T7AXGz7Y1Y4HtsFVdVX25IHY7OPpuqJ9QmTyaDQRdrEYV2SQJAQjIbj5AuGqfSveL5DqYLYbGIBpc8gC216lEoydq24yPtwzBEfa-jS__rWTTw0Zt4A7DAeZYLHmimxaVHVugYU9utirgHDrarJdSP5FHesgUkM05gvgtdQ27vbazEhdBwhDWf2hs9L6CLourE3nSGIqMORnAbf6V967OIMrC3QbDUy4kh-2i0sVPK2vLTdihbM1LWIgUKPopabwZhfYMOzAAic9ZvAy9_Uk73y_QfhoI2lLaw3kapfb3rP1aVtV2_NVckhFPP7ftznlMSC6AOmj64y1ucrwyeFTCTcAVAWojfO9nWHi0oVQeZXbu3SnmBlWMvoG53rEO0qqL5p-0vNkugL6yEH8cLOPD8yu7hRlMrrYVjdePBGIbvjO7LvMCIKMgbBR5Q2RA58ldtMArRlQExhMW2d_YyFYxiMFTE4xtnxZEzhIimmtlOMqq3Ef4J8rC9urzoG5u-kFKq1Ptp4frOOGBMb5X7nNRsh1DWdq4M1vg24hNe2rR7LGxdL2OiSglJfXi4CAoMgiTLjxfKxxNY4bBddvzP99UkiEH4ZrBXwonapI73OR4Kjb0g1bjC2o2aWp3lEjnxzCBsTBHFbgNcb0CkD_g2iGbNt2rWsNCcuh8jvusbO2GjZJN-iAeEdPeIXkqDR46Et5e3HGH0BD15VKk68XqWrbta63LU3yta1iarq0Hwl6bzXjOMBo0lceGHEiufcULvPFsjO5dHtHe8nl9-LbfXyHhIerB89EnahhTzucNJsL9sgqN90kzs9OXxDmaMYtyCEXklH6rtdfrcCw-QoJzvV8zN6AtLtXBvURKjei6dkU3rJLczSsximawijfExWHBpRl_QqzAffukRQaHkQwBZjRkYUua0sfpe_aHu0z3RrpLXbHlyLqJ8HWLTa-o7HPqHqHtUJlyrYkCbAakDiLRbcLG1iDshMcxCDfbTt9HhmOLDSSnE1tlmARe7tgDranXYofORfA2cSQRotr39Fx9vg_7v3FRsMa33cJAaPx7325KYjNZCRoOip8dEFRkw4gofYNUakEeVysOy0__-73VWu_6Ge-fQZlWqLVPmQPMydbBJr8YqitpLxIJBSW1hk5eSin8qr4lakQ5jWqJRzjqoX56KvOJInX1RAOH58CfhRLyhyweWSziOt63p2wf3HEivKrcc6GPT9BaC1GrmaQCu5jXNsUpCIYGeql9u6CDgs1BnDV1RHrsnbqLjXWwITqnAkw3R4pNEwDLkbkq8jDg8KavBZLVC4_TNYRripzCkEUT_vbtYzp-UaM4iPza4C4joSdPFU5vxy__T88GBIA_COP5ocJoxcFDOnbwP6g3O8zLXRVVbjT85rfZsPyjPu4NH5uHqI195dJoxk7XoozERrpSM-3FvhCLkjmejPEtDpS5HDslPodVtfJbmNvuEy7_XAxCG8cMyt19uZXV-c4IhAF09ujb7iFV8bZCwJpA5scwzEFWwdy0]--></g></svg>